<svg width="11" height="9" viewBox="0 0 11 9" fill="none" xmlns="http://www.w3.org/2000/svg">
<path d="M8.60589 0.271688C8.78082 0.0982777 9.01698 0.000683171 9.2633 3.57305e-06C9.50962 -0.000676025 9.74631 0.095614 9.9222 0.268056C10.0981 0.440499 10.1991 0.675238 10.2033 0.921524C10.2074 1.16781 10.1145 1.40585 9.94464 1.58419L4.95464 7.82169C4.86887 7.91406 4.76537 7.98819 4.6503 8.03965C4.53524 8.0911 4.41098 8.11883 4.28495 8.12116C4.15893 8.12349 4.03372 8.10039 3.91683 8.05323C3.79994 8.00607 3.69376 7.93582 3.60464 7.84669L0.298386 4.53919C0.206277 4.45336 0.132399 4.34986 0.0811593 4.23486C0.0299194 4.11986 0.00236688 3.99572 0.0001459 3.86984C-0.00207508 3.74396 0.021081 3.61893 0.0682323 3.50219C0.115384 3.38546 0.185564 3.27941 0.274588 3.19039C0.363611 3.10137 0.469653 3.03119 0.586389 2.98404C0.703124 2.93688 0.82816 2.91373 0.954039 2.91595C1.07992 2.91817 1.20406 2.94572 1.31906 2.99696C1.43406 3.0482 1.53756 3.12208 1.62339 3.21419L4.24089 5.83044L8.58214 0.299189C8.58988 0.289503 8.59698 0.280318 8.60589 0.271688Z" fill="white"/>
</svg>
