<svg width="11" height="10" viewBox="0 0 11 10" fill="none" xmlns="http://www.w3.org/2000/svg">
<path d="M8.71251 1.21251C8.88745 1.0391 9.12361 0.94151 9.36993 0.94083C9.61625 0.94015 9.85294 1.03644 10.0288 1.20888C10.2047 1.38133 10.3057 1.61606 10.3099 1.86235C10.3141 2.10864 10.2212 2.34668 10.0513 2.52501L5.06126 8.76252C4.9755 8.85489 4.872 8.92902 4.75693 8.98047C4.64186 9.03193 4.5176 9.05965 4.39158 9.06199C4.26555 9.06432 4.14035 9.04122 4.02346 8.99406C3.90657 8.9469 3.80039 8.87665 3.71126 8.78752L0.405014 5.48001C0.312905 5.39419 0.239028 5.29069 0.187788 5.17569C0.136548 5.06069 0.108995 4.93655 0.106774 4.81067C0.104553 4.68479 0.127709 4.55975 0.174861 4.44302C0.222012 4.32628 0.292193 4.22024 0.381216 4.13122C0.47024 4.04219 0.576282 3.97201 0.693017 3.92486C0.809752 3.87771 0.934789 3.85455 1.06067 3.85678C1.18655 3.859 1.31069 3.88655 1.42569 3.93779C1.54069 3.98903 1.64419 4.06291 1.73001 4.15501L4.34751 6.77127L8.68877 1.24001C8.69651 1.23033 8.70361 1.22114 8.71251 1.21251Z" fill="#37B6B8"/>
</svg>
