<svg width="53" height="52" viewBox="0 0 53 52" fill="none" xmlns="http://www.w3.org/2000/svg">
<path d="M8.62503 26C8.62454 22.862 9.45012 19.7793 11.0188 17.0615C12.5874 14.3438 14.8439 12.0869 17.5613 10.5177C20.2787 8.94851 23.3614 8.12232 26.4993 8.1222C29.6373 8.12208 32.72 8.94802 35.4375 10.517C35.8106 10.7291 36.2523 10.785 36.6665 10.6726C37.0806 10.5602 37.4334 10.2885 37.648 9.91687C37.8625 9.54526 37.9214 9.10386 37.8117 8.689C37.702 8.27415 37.4327 7.91952 37.0625 7.7025C33.0353 5.37739 28.3534 4.44606 23.743 5.05297C19.1326 5.65987 14.8512 7.77108 11.5629 11.0592C8.27457 14.3473 6.16309 18.6285 5.55589 23.2389C4.94869 27.8493 5.87971 32.5313 8.20457 36.5586C10.5294 40.586 14.1182 43.7337 18.4143 45.5136C22.7104 47.2935 27.4737 47.6061 31.9656 46.403C36.4575 45.1999 40.4269 42.5482 43.2582 38.8592C46.0895 35.1703 47.6244 30.6502 47.625 26C47.625 25.569 47.4538 25.1557 47.1491 24.8509C46.8443 24.5462 46.431 24.375 46 24.375C45.5691 24.375 45.1557 24.5462 44.851 24.8509C44.5462 25.1557 44.375 25.569 44.375 26C44.375 30.7407 42.4918 35.2873 39.1396 38.6395C35.7874 41.9917 31.2408 43.875 26.5 43.875C21.7593 43.875 17.2127 41.9917 13.8605 38.6395C10.5083 35.2873 8.62503 30.7407 8.62503 26Z" fill="#37B6B8"/>
<path d="M50.4005 10.9005C50.5516 10.7494 50.6714 10.5701 50.7532 10.3727C50.8349 10.1753 50.877 9.96368 50.877 9.75001C50.877 9.53634 50.8349 9.32477 50.7532 9.12736C50.6714 8.92996 50.5516 8.75059 50.4005 8.59951C50.2494 8.44842 50.07 8.32857 49.8726 8.24681C49.6752 8.16504 49.4636 8.12296 49.25 8.12296C49.0363 8.12296 48.8247 8.16504 48.6273 8.24681C48.4299 8.32857 48.2506 8.44842 48.0995 8.59951L26.5 30.2023L17.9005 21.5995C17.7494 21.4484 17.57 21.3286 17.3726 21.2468C17.1752 21.165 16.9636 21.123 16.75 21.123C16.5363 21.123 16.3247 21.165 16.1273 21.2468C15.9299 21.3286 15.7506 21.4484 15.5995 21.5995C15.4484 21.7506 15.3285 21.93 15.2468 22.1274C15.165 22.3248 15.1229 22.5363 15.1229 22.75C15.1229 22.9637 15.165 23.1753 15.2468 23.3727C15.3285 23.5701 15.4484 23.7494 15.5995 23.9005L25.3495 33.6505C25.5004 33.8018 25.6797 33.9219 25.8772 34.0038C26.0746 34.0857 26.2862 34.1279 26.5 34.1279C26.7137 34.1279 26.9254 34.0857 27.1228 34.0038C27.3202 33.9219 27.4995 33.8018 27.6505 33.6505L50.4005 10.9005Z" fill="#37B6B8"/>
</svg>
