<svg width="25" height="24" viewBox="0 0 25 24" fill="none" xmlns="http://www.w3.org/2000/svg">
<g clip-path="url(#clip0_5_2286)">
<path d="M3.5 3C2.70435 3 1.94129 3.31607 1.37868 3.87868C0.816071 4.44129 0.5 5.20435 0.5 6L0.5 18.015C0.503965 18.808 0.821786 19.5673 1.38397 20.1266C1.94615 20.686 2.70694 21 3.5 21H11.75C11.9489 21 12.1397 20.921 12.2803 20.7803C12.421 20.6397 12.5 20.4489 12.5 20.25C12.5 20.0511 12.421 19.8603 12.2803 19.7197C12.1397 19.579 11.9489 19.5 11.75 19.5H3.5C3.16982 19.5 2.84884 19.3911 2.58686 19.1902C2.32487 18.9892 2.13652 18.7074 2.051 18.3885L10.511 13.182L12.5 14.3745L23 8.0745V12.75C23 12.9489 23.079 13.1397 23.2197 13.2803C23.3603 13.421 23.5511 13.5 23.75 13.5C23.9489 13.5 24.1397 13.421 24.2803 13.2803C24.421 13.1397 24.5 12.9489 24.5 12.75V6C24.5 5.20435 24.1839 4.44129 23.6213 3.87868C23.0587 3.31607 22.2956 3 21.5 3H3.5ZM9.062 12.312L2 16.6575V8.0745L9.062 12.312ZM2 6.3255V6C2 5.60218 2.15804 5.22064 2.43934 4.93934C2.72064 4.65804 3.10218 4.5 3.5 4.5H21.5C21.8978 4.5 22.2794 4.65804 22.5607 4.93934C22.842 5.22064 23 5.60218 23 6V6.3255L12.5 12.6255L2 6.3255Z" fill="black"/>
<path d="M24.5 18.75C24.5 20.1424 23.9469 21.4777 22.9623 22.4623C21.9777 23.4469 20.6424 24 19.25 24C17.8576 24 16.5223 23.4469 15.5377 22.4623C14.5531 21.4777 14 20.1424 14 18.75C14 17.3576 14.5531 16.0223 15.5377 15.0377C16.5223 14.0531 17.8576 13.5 19.25 13.5C20.6424 13.5 21.9777 14.0531 22.9623 15.0377C23.9469 16.0223 24.5 17.3576 24.5 18.75ZM21.5105 16.2315C21.426 16.1809 21.3323 16.1474 21.2349 16.1329C21.1374 16.1185 21.0381 16.1234 20.9426 16.1473C20.847 16.1713 20.7571 16.2138 20.678 16.2726C20.5989 16.3313 20.5321 16.405 20.4815 16.4895L18.7265 19.4145L17.906 18.594C17.7652 18.4532 17.5742 18.3741 17.375 18.3741C17.1758 18.3741 16.9848 18.4532 16.844 18.594C16.7032 18.7348 16.6241 18.9258 16.6241 19.125C16.6241 19.3242 16.7032 19.5152 16.844 19.656L18.005 20.8155C18.1258 20.9366 18.2727 21.0285 18.4344 21.0843C18.5961 21.1401 18.7684 21.1582 18.9382 21.1374C19.108 21.1166 19.2708 21.0573 19.4143 20.9641C19.5577 20.8709 19.678 20.7462 19.766 20.5995L21.7685 17.2605C21.8191 17.176 21.8526 17.0823 21.8671 16.9849C21.8815 16.8874 21.8766 16.7881 21.8527 16.6926C21.8287 16.597 21.7862 16.5071 21.7274 16.428C21.6687 16.3489 21.595 16.2821 21.5105 16.2315Z" fill="black"/>
</g>
<defs>
<clipPath id="clip0_5_2286">
<rect width="24" height="24" fill="white" transform="translate(0.5)"/>
</clipPath>
</defs>
</svg>
