<svg width="59" height="47" viewBox="0 0 59 47" fill="none" xmlns="http://www.w3.org/2000/svg">
<path d="M8.83293 31.0586L8.76589 15.8871C8.76589 15.3515 8.48101 14.8661 8.02017 14.5984L1.55164 10.8159C1.04891 10.523 0.412109 10.8829 0.412109 11.4686V35.0419C0.412109 35.5774 0.696993 36.0795 1.16621 36.3473L19.2898 46.7992C19.759 47.067 20.3288 47.067 20.798 46.7992L27.3336 43.0335C27.8363 42.7406 27.8363 42.021 27.3336 41.7281L8.83293 31.0586Z" fill="#1A214D"/>
<path d="M58.2014 23.9373L52.2607 20.4143C51.7915 20.1382 51.205 20.1298 50.7358 20.4143L43.9153 24.3641L37.12 20.4478L43.6137 16.7072C44.1248 16.4143 44.1164 15.6779 43.6053 15.3934L38.2512 12.4394C37.7903 12.1884 37.2289 12.1884 36.7681 12.4562L16.2062 24.3055C15.7035 24.59 15.7035 25.3097 16.1979 25.6026L21.3174 28.6654C21.7866 28.9499 22.3731 28.9499 22.8507 28.6737L29.6544 24.7574L36.4665 28.6821L30.1404 32.339C29.6376 32.6319 29.6376 33.3516 30.1404 33.6444L36.1229 37.1089C36.5921 37.3767 37.1703 37.3767 37.6311 37.1089L58.2098 25.2428C58.7125 24.9582 58.7125 24.2386 58.2098 23.9457L58.2014 23.9373Z" fill="#37B6B8"/>
<path d="M26.4539 5.33473L20.5635 0.188285C20.2786 -0.0627615 19.8513 -0.0627615 19.5664 0.188285L13.6593 5.35983C13.1314 5.82845 13.2152 6.67364 13.8268 7.02511C14.2039 7.24268 14.6731 7.20084 14.9999 6.92469L19.1223 3.48536V16.272C19.1223 16.9833 19.8932 17.4351 20.5216 17.0753C20.8149 16.9079 20.9908 16.5983 20.9908 16.272V3.47699L25.1216 6.89958C25.4568 7.17573 25.9176 7.21757 26.2947 7C26.9063 6.64854 26.9901 5.80335 26.4539 5.33473Z" fill="#37B6B8"/>
</svg>
