<svg width="30" height="24" viewBox="0 0 30 24" fill="none" xmlns="http://www.w3.org/2000/svg">
<path d="M4.24292 15.8597L4.20915 8.11254C4.20915 7.83906 4.06561 7.59121 3.83341 7.45447L0.574167 5.52302C0.320858 5.37346 0 5.55721 0 5.85633V17.8937C0 18.1672 0.143542 18.4236 0.379963 18.5603L9.51174 23.8975C9.74817 24.0342 10.0352 24.0342 10.2717 23.8975L13.5647 21.9746C13.818 21.825 13.818 21.4575 13.5647 21.3079L4.24292 15.8597Z" fill="#091C2E"/>
<path d="M29.1178 12.2233L26.1246 10.4243C25.8881 10.2833 25.5926 10.279 25.3562 10.4243L21.9196 12.4412L18.4957 10.4414L21.7676 8.53129C22.0252 8.38173 22.0209 8.0057 21.7634 7.86041L19.0657 6.352C18.8335 6.22381 18.5506 6.22381 18.3184 6.36055L7.95809 12.4113C7.70478 12.5566 7.70478 12.9241 7.95387 13.0736L10.5334 14.6376C10.7698 14.7829 11.0653 14.7829 11.306 14.6419L14.7341 12.642L18.1664 14.6461L14.979 16.5135C14.7257 16.663 14.7257 17.0305 14.979 17.1801L17.9933 18.9492C18.2298 19.0859 18.5211 19.0859 18.7533 18.9492L29.122 12.8899C29.3753 12.7446 29.3753 12.3771 29.122 12.2275L29.1178 12.2233Z" fill="white"/>
<path d="M13.1214 2.72412L10.1534 0.0961453C10.0099 -0.0320484 9.79459 -0.0320484 9.65105 0.0961453L6.67467 2.73694C6.40869 2.97623 6.45091 3.40782 6.75911 3.58729C6.94909 3.69839 7.18551 3.67702 7.35016 3.53601L9.42729 1.77976V8.30909C9.42729 8.67231 9.8157 8.90305 10.1323 8.71931C10.2801 8.63385 10.3688 8.47574 10.3688 8.30909V1.77548L12.4501 3.52319C12.619 3.6642 12.8512 3.68557 13.0412 3.57447C13.3494 3.395 13.3916 2.96341 13.1214 2.72412Z" fill="white"/>
</svg>
