<svg width="121" height="120" viewBox="0 0 121 120" fill="none" xmlns="http://www.w3.org/2000/svg">
<rect x="0.5" width="120" height="120" rx="60" fill="#37B6B8"/>
<rect x="15" y="15" width="90" height="90" rx="45" fill="white"/>
<path d="M56 46C57.5913 46 59.1174 45.3679 60.2426 44.2426C61.3679 43.1174 62 41.5913 62 40C62 38.4087 61.3679 36.8826 60.2426 35.7574C59.1174 34.6321 57.5913 34 56 34C54.4087 34 52.8826 34.6321 51.7574 35.7574C50.6321 36.8826 50 38.4087 50 40C50 41.5913 50.6321 43.1174 51.7574 44.2426C52.8826 45.3679 54.4087 46 56 46ZM46 58C46 58 44 58 44 56C44 54 46 48 56 48C66 48 68 54 68 56C68 58 66 58 66 58H46ZM66 37C66 36.7348 66.1054 36.4804 66.2929 36.2929C66.4804 36.1054 66.7348 36 67 36H75C75.2652 36 75.5196 36.1054 75.7071 36.2929C75.8946 36.4804 76 36.7348 76 37C76 37.2652 75.8946 37.5196 75.7071 37.7071C75.5196 37.8946 75.2652 38 75 38H67C66.7348 38 66.4804 37.8946 66.2929 37.7071C66.1054 37.5196 66 37.2652 66 37ZM67 42C66.7348 42 66.4804 42.1054 66.2929 42.2929C66.1054 42.4804 66 42.7348 66 43C66 43.2652 66.1054 43.5196 66.2929 43.7071C66.4804 43.8946 66.7348 44 67 44H75C75.2652 44 75.5196 43.8946 75.7071 43.7071C75.8946 43.5196 76 43.2652 76 43C76 42.7348 75.8946 42.4804 75.7071 42.2929C75.5196 42.1054 75.2652 42 75 42H67ZM71 48C70.7348 48 70.4804 48.1054 70.2929 48.2929C70.1054 48.4804 70 48.7348 70 49C70 49.2652 70.1054 49.5196 70.2929 49.7071C70.4804 49.8946 70.7348 50 71 50H75C75.2652 50 75.5196 49.8946 75.7071 49.7071C75.8946 49.5196 76 49.2652 76 49C76 48.7348 75.8946 48.4804 75.7071 48.2929C75.5196 48.1054 75.2652 48 75 48H71ZM71 54C70.7348 54 70.4804 54.1054 70.2929 54.2929C70.1054 54.4804 70 54.7348 70 55C70 55.2652 70.1054 55.5196 70.2929 55.7071C70.4804 55.8946 70.7348 56 71 56H75C75.2652 56 75.5196 55.8946 75.7071 55.7071C75.8946 55.5196 76 55.2652 76 55C76 54.7348 75.8946 54.4804 75.7071 54.2929C75.5196 54.1054 75.2652 54 75 54H71Z" fill="#37B6B8"/>
<path d="M43.5784 71.1201V84.2451H42.1868V71.1201H43.5784ZM32.7971 80.6709C33.8811 80.6636 35.1116 80.6562 36.4006 80.627V79.3086C34.8699 79.1035 33.8738 78.2026 33.8811 76.9209C33.8738 75.4414 35.1629 74.4673 37.0598 74.46C38.9788 74.4673 40.2898 75.4414 40.2971 76.9209C40.2898 78.188 39.301 79.0815 37.7776 79.3013V80.5757C38.9934 80.5171 40.2239 80.4292 41.3811 80.2754L41.4837 81.3154C38.5686 81.7988 35.3899 81.8354 32.9876 81.8281L32.7971 80.6709ZM33.0755 73.8008V72.6875H36.4006V71.1494H37.7922V72.6875H41.0881V73.8008H33.0755ZM35.1995 76.9209C35.1848 77.7559 35.9612 78.2759 37.0598 78.2686C38.1951 78.2759 38.9641 77.7559 38.9641 76.9209C38.9641 76.0786 38.1951 75.5439 37.0598 75.5439C35.9612 75.5439 35.1848 76.0786 35.1995 76.9209ZM56.6008 71.1348V81.0811H55.2092V79.8213H52.5725V78.8398H55.2092V71.1348H56.6008ZM45.6292 77.126C48.0535 77.104 51.3274 77.082 54.1253 76.7305L54.2131 77.7266C53.0925 77.917 51.9133 78.0342 50.7561 78.1147V80.6709H49.3645V78.188C48.0901 78.2393 46.867 78.2393 45.8049 78.2393L45.6292 77.126ZM46.6546 73.9473C46.6472 72.5557 47.9729 71.6328 49.9212 71.6328C51.8401 71.6328 53.1731 72.5557 53.1731 73.9473C53.1731 75.3462 51.8401 76.2324 49.9212 76.2324C47.9802 76.2324 46.6472 75.3462 46.6546 73.9473ZM47.4456 83.9668V80.1143H48.8225V82.8389H56.9231V83.9668H47.4456ZM47.9729 73.9473C47.9656 74.7236 48.7566 75.207 49.9212 75.207C51.0418 75.207 51.8474 74.7236 51.8547 73.9473C51.8474 73.1636 51.0418 72.6582 49.9212 72.6729C48.7566 72.6582 47.9656 73.1636 47.9729 73.9473ZM72.5383 71.1201V76.3496H74.5745V77.5068H72.5383V84.2305H71.1467V71.1201H72.5383ZM62.3284 80.7295C65.617 79.0889 67.4041 76.7158 67.6897 73.6543H62.9876V72.4971H69.1106C69.096 76.291 67.426 79.6821 63.1047 81.8135L62.3284 80.7295ZM86.1614 71.1201V78.166H84.7698V71.1201H86.1614ZM75.5413 74.7676C75.5486 72.9658 77.0281 71.7134 79.0422 71.7207C81.0491 71.7134 82.5286 72.9658 82.5286 74.7676C82.5286 76.562 81.0491 77.8145 79.0422 77.7998C77.0281 77.8145 75.5486 76.562 75.5413 74.7676ZM76.9036 74.7676C76.8963 75.9028 77.7971 76.6572 79.0422 76.6572C80.2727 76.6572 81.1663 75.9028 81.1663 74.7676C81.1663 73.647 80.2727 72.8853 79.0422 72.8926C77.7971 72.8853 76.8963 73.647 76.9036 74.7676ZM77.5774 84.084V78.7959H78.9397V80.2754H84.7844V78.7959H86.1614V84.084H77.5774ZM78.9397 82.9414H84.7844V81.374H78.9397V82.9414Z" fill="#091C2E"/>
</svg>
